<?xml version="1.0" encoding="UTF-8"?>
<svg viewBox="0 0 800 520" xmlns="http://www.w3.org/2000/svg">
  <!-- Background & Title -->
  <rect x="0" y="0" width="800" height="520" fill="#f8f9fa" />
  <text x="400" y="30" font-family="Arial" font-size="20" text-anchor="middle" font-weight="bold">Block Signing Process</text>
  
  <!-- Step 1: Block Production -->
  <rect x="50" y="80" width="700" height="90" rx="5" fill="#e6f2ff" stroke="#0066cc" stroke-width="2" />
  <text x="400" y="105" font-family="Arial" font-size="16" text-anchor="middle" font-weight="bold">1. Block Production in TEE</text>
  
  <!-- Block Details -->
  <rect x="530" y="120" width="170" height="35" rx="3" fill="#fff" stroke="#666" stroke-width="1" />
  <text x="615" y="142" font-family="Arial" font-size="12" text-anchor="middle">parentHash</text>
  
  <rect x="390" y="120" width="120" height="35" rx="3" fill="#fff" stroke="#666" stroke-width="1" />
  <text x="450" y="142" font-family="Arial" font-size="12" text-anchor="middle">number</text>
  
  <rect x="270" y="120" width="100" height="35" rx="3" fill="#fff" stroke="#666" stroke-width="1" />
  <text x="320" y="142" font-family="Arial" font-size="12" text-anchor="middle">timestamp</text>
  
  <rect x="100" y="120" width="150" height="35" rx="3" fill="#fff" stroke="#666" stroke-width="1" />
  <text x="175" y="142" font-family="Arial" font-size="12" text-anchor="middle">txs[tx₁, tx₂, ..., txₙ]</text>
  
  <!-- Step 2: Compute Signature Target -->
  <rect x="50" y="190" width="700" height="120" rx="5" fill="#e6ffee" stroke="#009933" stroke-width="2" />
  <text x="400" y="215" font-family="Arial" font-size="16" text-anchor="middle" font-weight="bold">2. Compute Signature Target</text>
  
  <!-- Transaction Hash Process -->
  <rect x="70" y="235" width="200" height="60" rx="3" fill="#fff" stroke="#666" stroke-width="1" />
  <text x="170" y="255" font-family="Arial" font-size="12" text-anchor="middle" font-weight="bold">Compute Transaction Hashes</text>
  <text x="170" y="275" font-family="Arial" font-size="10" text-anchor="middle">txHash₁ = keccak256(rlp_encode(tx₁))</text>
  <text x="170" y="290" font-family="Arial" font-size="10" text-anchor="middle">txHash₂ = keccak256(rlp_encode(tx₂))</text>
  
  <rect x="310" y="235" width="400" height="60" rx="3" fill="#fff" stroke="#666" stroke-width="1" />
  <text x="510" y="255" font-family="Arial" font-size="12" text-anchor="middle" font-weight="bold">Hash Block Data with Transaction Hashes</text>
  <text x="510" y="275" font-family="Arial" font-size="10" text-anchor="middle">signatureTarget = keccak256(abi.encode(</text>
  <text x="510" y="290" font-family="Arial" font-size="10" text-anchor="middle">block.parentHash, block.number, block.timestamp, transactionHashes))</text>
  
  <!-- Data Flow Arrows -->
  <path d="M 615 155 L 615 235" stroke="#666" stroke-width="1.5" marker-end="url(#arrow)" />
  <path d="M 450 155 L 450 235" stroke="#666" stroke-width="1.5" marker-end="url(#arrow)" />
  <path d="M 320 155 L 320 235" stroke="#666" stroke-width="1.5" marker-end="url(#arrow)" />
  <path d="M 175 155 L 170 235" stroke="#666" stroke-width="1.5" marker-end="url(#arrow)" />
  
  <path d="M 270 265 L 310 265" stroke="#666" stroke-width="1.5" marker-end="url(#arrow)" />
  
  <!-- Step 3: Sign Target -->
  <rect x="50" y="330" width="700" height="80" rx="5" fill="#ffefcc" stroke="#ff9900" stroke-width="2" />
  <text x="400" y="355" font-family="Arial" font-size="16" text-anchor="middle" font-weight="bold">3. Sign with Deterministic Private Key</text>
  
  <!-- Signing Box -->
  <rect x="250" y="370" width="300" height="30" rx="3" fill="#fff" stroke="#666" stroke-width="1" />
  <text x="400" y="390" font-family="Arial" font-size="12" text-anchor="middle">signature = ECDSA_Sign(privateKey, signatureTarget)</text>
  
  <!-- Data Flow Arrow -->
  <path d="M 510 295 L 400 370" stroke="#666" stroke-width="1.5" marker-end="url(#arrow)" />
  
  <!-- Step 4: Add Signature to Block -->
  <rect x="50" y="430" width="700" height="70" rx="5" fill="#ffe6e6" stroke="#cc0000" stroke-width="2" />
  <text x="400" y="455" font-family="Arial" font-size="16" text-anchor="middle" font-weight="bold">4. Add Signature as Final Transaction in Block</text>
  
  <!-- Signature Transaction Description -->
  <rect x="75" y="470" width="650" height="20" rx="3" fill="#fff" stroke="#666" stroke-width="1" />
  <text x="400" y="485" font-family="Arial" font-size="12" text-anchor="middle">
    to: TEE_SIGNATURE_CONTRACT_ADDRESS, from: TEE_BUILDER_ADDRESS, value: 0, data: abi.encode(signature)
  </text>
  
  <!-- Data Flow Arrow -->
  <path d="M 400 400 L 400 430" stroke="#666" stroke-width="1.5" marker-end="url(#arrow)" />
  
  <!-- Arrow Marker -->
  <defs>
    <marker id="arrow" markerWidth="10" markerHeight="10" refX="9" refY="3" orient="auto" markerUnits="strokeWidth">
      <path d="M0,0 L0,6 L9,3 z" fill="#666" />
    </marker>
  </defs>
</svg>